<svg xmlns="http://www.w3.org/2000/svg" viewBox="0 0 600 700">
  <path d="M661.87,659.24V609.06c-14.59,11.23-33.49,14.27-53,14.27-41.71,0-66.73-30.61-75.07-62.62-6.25-24-15.64-26.1-19.94-25.64a22.1,22.1,0,0,1-4.6,0c-4.3-.46-13.68,1.63-19.94,25.64-8.34,32-33.36,62.62-75.06,62.62-19.13,0-37.66-2.93-52.13-13.61v49.5a100,100,0,0,0,14,51l36.75,62C437,862,512,862,512,862h0s78,0,99.13-89.76l36.76-62A100,100,0,0,0,661.87,659.24Z" transform="translate(-212 -162)" />
  <ellipse cx="376.2" cy="50.1" rx="50.04" ry="50.1" />
  <path d="M811.9,288.64H741.36a28,28,0,0,0-9.06,1.51c-18.66,6.42-87.61,33.39-93.64,83.31a2.86,2.86,0,0,1-5.08,1.46c-7.24-9.05-20.36-27.26-20.36-40.36V255.94l-50.77-.88v68.71a20.92,20.92,0,0,1-2.76,10.39c-5.69,10-19.54,31-35.44,31h-24.5c-15.9,0-29.75-21-35.44-31a20.92,20.92,0,0,1-2.76-10.39V255.06h0a50.12,50.12,0,0,0-23-93c-28.85-1.59-53.43,22.18-52.82,51.1a50.09,50.09,0,0,0,25,42.32v79.06c0,13.13-13.16,31.37-20.39,40.41a2.85,2.85,0,0,1-5.05-1.46c-6-49.94-75-76.93-93.64-83.36a28,28,0,0,0-9.06-1.51H212.1c-.06,0-.1,0-.1.09,0,1.81,0,32.23,1.39,86.19,1.23,49.12,67.38,79.81,82.93,86.36a16.86,16.86,0,0,0,6.53,1.32h45.27a14,14,0,0,1,14,14v18.53c27.62-4.07,74.27-6.53,130.24,8.21a8.74,8.74,0,0,0,2.27.3h33.84a8.68,8.68,0,0,0,2.27-.3c56.56-14.9,103.62-12.23,131.12-8.08V476.63a14,14,0,0,1,14-14h45.25a16.84,16.84,0,0,0,6.5-1.31c15.53-6.54,81.72-37.24,83-86.37C812,321,812,290.54,812,288.73,812,288.67,812,288.64,811.9,288.64Z" transform="translate(-212 -162)" />
  <path d="M529.63,503.65c91.54-24.44,158.47-2.78,158.47-2.78s1.39,22.26,1.39,30.61c0,77.95-38.92,91.85-80.62,91.85s-66.73-30.61-75.07-62.62c-6.25-24-15.64-26.1-19.94-25.64a22.1,22.1,0,0,1-4.6,0c-4.3-.46-13.68,1.63-19.94,25.64-8.34,32-33.36,62.62-75.06,62.62s-80.63-13.9-80.63-91.85c0-8.35,1.39-30.61,1.39-30.61s66.93-21.66,158.47,2.78Z" transform="translate(-212 -162)" fill="none"  stroke-miterlimit="10" stroke-width="11"/>
</svg>

