<svg id="Layer_1" data-name="Layer 1" xmlns="http://www.w3.org/2000/svg" viewBox="0 0 674 786.3"><defs><style>.cls-1{fill:none;stroke:#774DF0;stroke-miterlimit:10;stroke-width:15px;}.cls-2{fill:#774DF0;}</style></defs><title>principal_transparent</title><path class="cls-1" d="M531.81,502.6c102.83-27.45,178-3.12,178-3.12s1.56,25,1.56,34.39c0,87.56-43.72,103.18-90.57,103.18s-74.95-34.4-84.32-70.35c-7-27-17.57-29.31-22.4-28.8a24.82,24.82,0,0,1-5.17,0c-4.83-.51-15.37,1.83-22.4,28.8-9.37,35.95-37.47,70.35-84.32,70.35s-90.57-15.62-90.57-103.18c0-9.38,1.56-34.39,1.56-34.39s75.19-24.33,178,3.12Z" transform="translate(-175 -118.85)"/><path class="cls-2" d="M680.36,677.38V621c-16.4,12.61-37.63,16-59.55,16-46.84,0-74.95-34.4-84.32-70.35-7-27-17.57-29.31-22.4-28.8a24.82,24.82,0,0,1-5.17,0c-4.83-.51-15.37,1.83-22.4,28.8-9.37,35.95-37.47,70.35-84.32,70.35-21.48,0-42.3-3.3-58.56-15.3v55.61a112.43,112.43,0,0,0,15.72,57.33l41.28,69.63C427.75,905.15,512,905.15,512,905.15h0s87.62,0,111.36-100.83l41.29-69.66A112.29,112.29,0,0,0,680.36,677.38Z" transform="translate(-175 -118.85)"/><path class="cls-2" d="M625.72,223.59a56.15,56.15,0,1,0-57.07-.21l0,77.19a23.63,23.63,0,0,1-3.09,11.67c-6.4,11.23-22,34.85-39.81,34.85H498.23c-17.85,0-33.41-23.61-39.8-34.84a23.57,23.57,0,0,1-3.1-11.68V223.39h0a56.3,56.3,0,0,0-25.8-104.46c-32.4-1.77-60,24.93-59.33,57.41a56.29,56.29,0,0,0,28.1,47.54V312.7c0,14.74-14.79,35.23-22.91,45.38a3.2,3.2,0,0,1-5.67-1.63C363,300.34,285.51,270,264.53,262.81a31.2,31.2,0,0,0-10.18-1.7H175.11c-.06,0-.11,0-.11.09,0,2,.05,36.22,1.56,96.83,1.38,55.17,75.69,89.66,93.16,97a18.91,18.91,0,0,0,7.34,1.48H327.9a15.74,15.74,0,0,1,15.74,15.74v20.82c31-4.58,83.44-7.34,146.31,9.22a10,10,0,0,0,2.55.34h38a10,10,0,0,0,2.55-.34c63.54-16.74,116.4-13.74,147.3-9.08V472.29a15.77,15.77,0,0,1,15.76-15.77H747a18.85,18.85,0,0,0,7.3-1.47c17.44-7.34,91.8-41.83,93.18-97C849,297.42,849,263.24,849,261.2c0-.06,0-.09-.11-.09H769.65a31.2,31.2,0,0,0-10.18,1.7c-21,7.21-98.41,37.5-105.19,93.57a3.22,3.22,0,0,1-5.71,1.65c-8.13-10.16-22.87-30.62-22.87-45.33,0-20.33,0-89.11,0-89.11" transform="translate(-175 -118.85)"/></svg>
